<?xml version="1.0" encoding="UTF-8" standalone="no"?>
<!-- Created with Inkscape (http://www.inkscape.org/) -->

<svg
   version="1.1"
   id="svg1"
   width="200"
   height="200"
   viewBox="0 0 200 200"
   sodipodi:docname="foto.svg"
   inkscape:version="1.4.2 (f4327f4, 2025-05-13)"
   xmlns:inkscape="http://www.inkscape.org/namespaces/inkscape"
   xmlns:sodipodi="http://sodipodi.sourceforge.net/DTD/sodipodi-0.dtd"
   xmlns="http://www.w3.org/2000/svg"
   xmlns:svg="http://www.w3.org/2000/svg">
  <defs
     id="defs1" />
  <sodipodi:namedview
     id="namedview1"
     pagecolor="#ffffff"
     bordercolor="#000000"
     borderopacity="0.25"
     inkscape:showpageshadow="2"
     inkscape:pageopacity="0.0"
     inkscape:pagecheckerboard="0"
     inkscape:deskcolor="#d1d1d1"
     inkscape:zoom="4.075"
     inkscape:cx="105.64417"
     inkscape:cy="100"
     inkscape:window-width="1920"
     inkscape:window-height="1017"
     inkscape:window-x="-8"
     inkscape:window-y="-8"
     inkscape:window-maximized="1"
     inkscape:current-layer="g1" />
  <g
     inkscape:groupmode="layer"
     inkscape:label="Image"
     id="g1">
    <path
       style="fill:#000000"
       d="m 27.685134,198.62186 c -0.290864,-0.75798 -0.02401,-1.88298 0.593011,-2.5 C 28.895165,195.50483 29.033246,195 28.58499,195 c -0.448255,0 -9.01e-4,-1.2375 0.994121,-2.75 0.995023,-1.5125 1.913888,-4.775 2.041923,-7.25 0.128035,-2.475 0.684267,-5.9625 1.236073,-7.75 0.739851,-2.39665 0.693399,-3.25402 -0.176913,-3.26531 -0.744167,-0.01 -0.810741,-0.28675 -0.180194,-0.75 0.55,-0.40408 1.045,-1.29719 1.1,-1.98469 0.371362,-4.64203 0.318842,-4.56221 2.054529,-3.12244 1.538316,1.27604 1.539497,1.14993 0.01681,-1.7954 -0.900747,-1.74231 -1.598725,-4.89231 -1.551063,-7 0.04766,-2.10769 -0.190419,-6.98216 -0.52907,-10.83216 -0.413252,-4.69811 -0.305969,-6.34232 0.326248,-5 0.518088,1.1 0.973606,4.33594 1.012263,7.19098 0.07842,5.79214 1.51615,7.82969 2.401426,3.40332 0.316056,-1.58029 1.744769,-4.16048 3.174916,-5.73377 L 43.106325,145.5 41.553162,148.70034 C 39.682177,152.55556 39.424228,163 41.2,163 c 0.933333,0 0.933333,0.26667 0,1.2 -1.566924,1.56692 -1.538275,3.59034 0.05,3.53135 0.6875,-0.0255 2.15,0.0693 3.25,0.2108 1.714576,0.2205 1.64322,0.35656 -0.5,0.95335 -1.893268,0.52719 -2.535005,1.4131 -2.644237,3.65032 -0.07933,1.6248 -0.40053,7.67918 -0.713777,13.45418 -0.313247,5.775 -0.585841,11.2875 -0.605763,12.25 -0.03032,1.46459 -0.997308,1.75 -5.929234,1.75 -4.08416,0 -6.055339,-0.42302 -6.421855,-1.37814 z m 105.525436,-0.021 c 0.70919,-0.76953 1.44699,-1.24947 1.63957,-1.06653 C 135.44328,198.09779 133.94,200 132.90156,200 c -0.53923,0 -0.40017,-0.62961 0.30901,-1.39914 z M 154.625,196.875 c -0.34375,-1.71875 -0.625,-4.19375 -0.625,-5.5 0,-1.30625 -0.45428,-2.375 -1.00951,-2.375 -0.57531,0 -0.81724,-1.5502 -0.56249,-3.60418 0.24587,-1.9823 0.17906,-3.33621 -0.14847,-3.00868 -0.32753,0.32753 -1.21029,0.0853 -1.96169,-0.53832 -0.75139,-0.6236 -1.67977,-0.82023 -2.06305,-0.43695 -0.38328,0.38328 -0.18308,1.01442 0.44489,1.40252 0.62796,0.3881 1.47172,2.05114 1.87501,3.69563 0.40329,1.64449 1.21343,3.30301 1.80032,3.68561 0.58689,0.38259 0.79617,0.96652 0.46508,1.29762 -0.3311,0.33109 -1.2261,-0.0221 -1.9889,-0.78492 -0.7628,-0.76279 -2.05387,-1.6487 -2.86905,-1.96867 -1.05987,-0.41602 -1.10566,-0.60426 -0.16071,-0.66071 0.97398,-0.0582 0.88438,-0.51599 -0.34075,-1.74113 -2.17031,-2.1703 -3.33444,-0.4494 -3.07448,4.5449 0.11759,2.2591 -0.39265,4.07468 -1.35895,4.83548 C 140.96637,197.35653 139,197.31125 139,195.625 c 0,-0.75625 -1.35,-1.645 -3,-1.975 -1.65,-0.33 -3,-1.11635 -3,-1.74744 0,-0.85213 0.36314,-0.84607 1.41097,0.0236 1.89532,1.57297 3.03041,-0.34187 1.25506,-2.11722 -0.83359,-0.83359 -1.07009,-2.11121 -0.61652,-3.33062 0.69188,-1.86013 0.7798,-1.87033 1.4722,-0.1708 0.405,0.99411 1.33889,1.57626 2.07531,1.29367 0.73641,-0.28258 1.6049,-0.0834 1.92997,0.44253 C 141.30508,189.30264 143,189.27271 143,188 c 0,-0.55 -0.48214,-1 -1.07143,-1 -1.35916,0 -3.04803,-1.69569 -5.4779,-5.5 -1.53867,-2.40901 -1.5903,-2.7425 -0.26208,-1.69285 1.44313,1.14046 1.58546,1.04481 1.1161,-0.75 -0.30575,-1.16919 -0.056,-2.05715 0.57868,-2.05715 0.61415,0 1.11663,0.58582 1.11663,1.30181 0,0.80207 1.34276,1.33988 3.49781,1.40096 1.92379,0.0545 3.24723,-0.30628 2.94098,-0.80181 C 145.13254,178.40543 144.10865,178 143.16349,178 c -0.94516,0 -2.68907,-0.67983 -3.87534,-1.51072 -1.36525,-0.95626 -2.38612,-1.13977 -2.78152,-0.5 -0.34357,0.55589 -1.08025,1.01072 -1.63708,1.01072 -1.554,0 1.51855,-2.71971 3.70117,-3.27615 1.63889,-0.41782 1.66587,-0.50931 0.17928,-0.60785 -1.12433,-0.0745 -1.73863,-0.92043 -1.7182,-2.366 0.0294,-2.08352 0.1301,-2.12051 1.36025,-0.5 0.73064,0.9625 2.17883,1.71837 3.21819,1.67971 1.77724,-0.0661 1.77067,-0.12145 -0.11024,-0.92971 l -2,-0.85943 2,-0.13367 c 1.85255,-0.12382 1.83412,-0.20035 -0.25,-1.03806 -1.2375,-0.49742 -2.25,-1.36889 -2.25,-1.93662 0,-1.26943 1.70752,-1.37247 2.16667,-0.13074 0.18333,0.49581 0.91357,0.27081 1.62276,-0.5 C 143.85065,165.24803 143.80641,165 142.53943,165 141.69274,165 141,164.53027 141,163.95616 c 0,-0.57411 0.5625,-0.97079 1.25,-0.88151 0.6875,0.0893 2.375,0.0641 3.75,-0.0558 l 2.5,-0.21816 L 146,162 c -2.08985,-0.66929 -1.76172,-0.82198 2,-0.93073 3.66488,-0.10595 4.16396,-0.32556 2.68926,-1.18336 -0.9959,-0.5793 -2.4584,-0.80474 -3.25,-0.50098 C 146.42644,159.77359 146,159.2058 146,157.46862 c 0,-1.461 0.61226,-2.52985 1.5,-2.61862 0.825,-0.0825 2.0625,-0.195 2.75,-0.25 0.6875,-0.055 1.11777,0.6875 0.95616,1.65 -0.17868,1.06416 0.33762,1.75 1.31739,1.75 1.0922,0 1.4285,0.57571 1.04399,1.78721 -0.71206,2.24351 2.98761,2.81444 3.8402,0.59262 0.32085,-0.83612 0.13789,-1.21705 -0.41919,-0.87275 -0.5437,0.33602 -0.98855,-0.3156 -0.98855,-1.44806 0,-1.13246 -0.5625,-2.06591 -1.25,-2.07433 -0.84022,-0.0103 -0.89827,-0.25616 -0.17706,-0.75 1.55458,-1.06449 2.54735,-4.23469 1.32612,-4.23469 -0.57099,0 -0.88368,-1.0125 -0.69487,-2.25 0.18881,-1.2375 0.82179,-2.16194 1.40662,-2.05431 0.58483,0.10763 1.02415,-1.01737 0.97626,-2.5 -0.11007,-3.40762 1.57066,-4.14136 3.01397,-1.31578 1.78229,3.48918 2.55696,3.7757 2.00689,0.74226 -0.28252,-1.55802 -1.147,-3.34788 -1.92107,-3.97747 -0.77406,-0.62958 -1.68514,-1.94261 -2.02462,-2.91784 -0.51797,-1.48798 -0.30978,-1.6086 1.29452,-0.75 2.26689,1.2132 3.34318,1.31747 2.68999,0.26059 -0.2592,-0.4194 0.14829,-1.8819 0.90555,-3.25 1.30107,-2.35058 1.37878,-2.17432 1.41226,3.20353 0.0195,3.13004 0.52464,5.99333 1.12256,6.36286 0.59791,0.36953 0.844,1.60154 0.54687,2.73779 -0.36435,1.39327 0.27407,2.82059 1.96081,4.3838 2.25857,2.09318 2.40208,2.67634 1.48023,6.01501 -0.56145,2.03341 -0.82992,3.888 -0.59659,4.12133 0.23332,0.23333 0.71991,-0.75387 1.0813,-2.19377 0.36139,-1.4399 1.06544,-2.618 1.56455,-2.618 1.40663,0 0.81337,6.13917 -0.93568,9.68272 -1.35043,2.73595 -1.38045,3.57818 -0.21386,6 1.77242,3.67949 2.06096,5.31728 0.93677,5.31728 -0.50134,0 -0.91152,0.45 -0.91152,1 0,0.55 0.6,1 1.33333,1 0.73334,0 1.33334,0.675 1.33334,1.5 0,0.825 -0.6551,1.5 -1.45578,1.5 -1.04931,0 -1.16713,0.34901 -0.42199,1.25 1.22116,1.47657 0.42265,6.75 -1.02211,6.75 -0.57313,0 -0.708,0.96052 -0.31591,2.25 0.37628,1.2375 1.05637,3.7125 1.51132,5.5 l 0.82718,3.25 H 164.01969 155.25 Z M 152,178.94098 c 0,-0.58246 0.40803,-0.80684 0.90674,-0.49862 0.49871,0.30822 0.67907,-0.31023 0.4008,-1.37434 -0.42615,-1.62958 -0.87239,-1.76778 -2.82922,-0.87619 -1.83415,0.8357 -2.07643,1.33999 -1.1508,2.39533 C 150.75253,180.21184 152,180.377 152,178.94098 Z M 144,174 c 0,-0.55 -0.45,-1 -1,-1 -0.55,0 -1,0.45 -1,1 0,0.55 0.45,1 1,1 0.55,0 1,-0.45 1,-1 z m 9.72616,-7.06689 c -0.59545,-0.95345 -1.65738,-1.513 -2.35985,-1.24344 -0.97312,0.37343 -1.00066,0.78617 -0.11567,1.73356 1.84975,1.98016 3.77961,1.59807 2.47552,-0.49012 z M 131.5,182 c 0.33992,-0.55 1.26648,-1 2.05902,-1 0.79254,0 1.44098,0.45 1.44098,1 0,0.55 -0.92656,1 -2.05902,1 -1.13246,0 -1.7809,-0.45 -1.44098,-1 z M 46,172.96862 C 46,172.43588 46.675,172 47.5,172 c 0.825,0 1.5,0.17686 1.5,0.39301 0,0.21616 -0.675,0.65203 -1.5,0.96862 -0.825,0.31658 -1.5,0.13972 -1.5,-0.39301 z m -0.915666,-6.9165 c -1.025535,-0.63381 -0.819786,-1.00131 0.858899,-1.5341 2.67537,-0.84913 3.58428,-0.20071 1.797395,1.28228 -0.750755,0.62307 -1.882068,0.73032 -2.656294,0.25182 z M 166,137.55902 c 0,-0.79254 0.40803,-1.69316 0.90674,-2.00138 0.49871,-0.30822 0.67122,0.34022 0.38337,1.44098 C 166.6795,139.33361 166,139.62877 166,137.55902 Z m -0.75,-22.26475 c -1.2375,-0.23836 -2.25,-0.88957 -2.25,-1.44715 0,-0.55758 -0.55848,-0.82763 -1.24107,-0.6001 -1.5819,0.5273 -3.75893,-1.61964 -3.75893,-3.70698 0,-2.2289 -2.69456,-3.03842 -4.66643,-1.40192 -0.90253,0.74904 -1.7968,1.24938 -1.98726,1.11188 -1.16997,-0.8446 -4.34631,-0.0206 -4.34631,1.12756 0,0.75765 -0.69778,1.95665 -1.55061,2.66445 -1.30972,1.08696 -1.63855,0.95063 -2.11664,-0.87756 -0.31131,-1.19045 -1.07603,-2.17876 -1.69938,-2.19625 -0.62335,-0.0175 -0.35286,-0.62449 0.60109,-1.34888 1.60884,-1.22169 1.43585,-2.61932 -0.3242,-2.61932 -0.41603,0 -2.14103,1.38462 -3.83334,3.07692 C 135.70286,111.45098 135,111.76258 135,110.441 c 0,-1.46533 -0.67857,-1.61984 -4.69574,-1.06923 -2.58266,0.354 -4.94516,1.02951 -5.25,1.50115 -0.76111,1.17755 -5.22459,2.58423 -7.05426,2.22318 -0.825,-0.1628 -1.7917,-0.76598 -2.14823,-1.34039 -0.44753,-0.72105 -2.05524,-0.6901 -5.19282,0.1 C 105.0557,113.26657 99.324831,113.33461 98.5,112 c -0.368625,-0.59645 0.845412,-1 3.00837,-1 3.03885,0 3.53372,-0.29204 3.05433,-1.80246 -0.61418,-1.93509 1.83558,-6.1326 2.93656,-5.03161 0.36453,0.36453 0.13986,1.63986 -0.49926,2.83407 -0.63912,1.19421 -0.92208,2.41125 -0.6288,2.70453 1.13213,1.13213 15.77287,-5.07222 17.67477,-7.4901 2.34896,-2.986225 2.52251,-6.788808 0.40641,-8.904906 -2.46821,-2.468208 -0.70601,-2.873156 2.42608,-0.557505 2.90636,2.148764 9.6599,5.130504 20.87154,9.214941 3.4375,1.25229 6.25,2.69858 6.25,3.21398 0,0.5154 0.46984,0.64672 1.04409,0.29181 0.57424,-0.3549 3.94758,0.85604 7.4963,2.69099 5.03186,2.60184 6.45303,3.83156 6.45591,5.58626 0.002,1.2375 -0.3338,2.18872 -0.7463,2.11382 -0.4125,-0.0749 -1.7625,-0.3312 -3,-0.56955 z m -44.17334,-6.10205 c -0.62845,-0.20948 -1.90268,-0.0892 -2.83162,0.26725 -1.42492,0.54679 -1.46409,0.78711 -0.25055,1.53712 0.89381,0.55241 1.96593,0.45122 2.83162,-0.26724 0.96097,-0.79753 1.0387,-1.27441 0.25055,-1.53713 z M 149,104.5 c 0,-0.825 -0.43588,-1.5 -0.96862,-1.5 -0.53273,0 -0.70959,0.675 -0.39301,1.5 0.31659,0.825 0.75246,1.5 0.96862,1.5 0.21615,0 0.39301,-0.675 0.39301,-1.5 z m 5,5.59844 c 0,-1.03844 1.90221,-2.54172 2.46567,-1.94858 0.18294,0.19258 -0.297,0.93038 -1.06653,1.63957 C 154.62961,110.49861 154,110.63767 154,110.09844 Z M 89.625,106.875 C 88.781143,102.65571 88.831582,102 90,102 c 0.55,0 1,0.92958 1,2.06574 0,1.13616 0.465833,2.93616 1.035184,4 0.795982,1.48731 0.70933,1.93426 -0.375,1.93426 -0.779406,0 -1.689748,-1.39782 -2.035184,-3.125 z m 7.584164,-1.91168 c -0.699561,-1.12018 -2.343471,-2.44408 -3.653134,-2.94202 -4.049682,-1.53968 -14.306253,-9.881084 -16.485553,-13.407266 -1.138762,-1.842556 -2.033769,-4.196987 -1.988903,-5.232068 0.05631,-1.2992 0.514099,-0.894178 1.478356,1.307963 1.970661,4.500534 8.759634,10.915493 14.009623,13.237813 2.449739,1.083636 4.721901,2.668198 5.049248,3.521248 0.388317,1.01194 1.872222,1.55101 4.269491,1.55101 3.156558,0 4.464128,-0.81024 9.279298,-5.75 C 115.2722,90.987434 117,88.281255 117,84.982408 c 0,-2.824879 2.39511,-2.041347 2.83002,0.925807 0.51926,3.542664 -4.1797,9.554734 -12.16594,15.565655 C 103.62591,104.51324 99.907762,107 99.401525,107 c -0.506237,0 -1.4928,-0.91651 -2.192361,-2.03668 z M 60.166154,99.123851 C 59.102135,98.449369 59.169252,98.149029 60.497942,97.639163 62.824727,96.746292 63,96.806595 63,98.5 c 0,1.68345 -0.862695,1.87336 -2.833846,0.623851 z M 67,95.244889 c 0,-0.55 0.675,-1.5602 1.5,-2.244889 0.83674,-0.694433 1.5,-0.802716 1.5,-0.244889 0,0.55 -0.675,1.5602 -1.5,2.244889 -0.83674,0.694433 -1.5,0.802716 -1.5,0.244889 z m 27.550591,-7.227143 c -2.366557,-0.830143 -1.62727,-1.269808 5.949409,-3.538202 3.3,-0.987993 6.9,-2.572431 8,-3.520974 2.80159,-2.415844 8.5,-5.187476 8.5,-4.134289 0,2.106596 -6.07453,8.983205 -9.27844,10.50356 -3.49322,1.657638 -9.513231,1.972971 -13.170969,0.689905 z M 102.25,68.473347 C 100.35928,66.372483 100.68924,66 104.44098,66 c 2.92173,0 5.56862,1.456282 4.40916,2.425855 -1.42141,1.188613 -5.54645,1.218295 -6.60014,0.04749 z M 89.898902,67.701098 c 0.46573,-0.46573 2.366504,-0.690294 4.22394,-0.499029 3.294022,0.339192 3.273177,0.360038 -0.846783,0.846783 -2.323167,0.274466 -3.842888,0.117977 -3.377157,-0.347754 z M 101.5,58 c 0.33992,-0.55 1.04148,-1 1.55902,-1 0.51754,0 0.94098,0.45 0.94098,1 0,0.55 -0.70156,1 -1.55902,1 -0.85746,0 -1.2809,-0.45 -0.94098,-1 z m 19.94976,-9.25556 c -0.067,-13.670627 -2.068,-21.907496 -6.39761,-26.33559 -4.44003,-4.541018 -8.81177,-5.684463 -20.117072,-5.261687 -8.768937,0.327926 -9.770349,0.585624 -14.183778,3.649983 -7.406603,5.142598 -8.402146,8.475107 -8.097585,27.106078 0.09496,5.809301 -0.185834,8.86691 -0.734688,8 -0.488621,-0.771773 -0.895292,-2.143492 -0.903714,-3.048264 -0.0084,-0.904772 -1.132539,-2.704772 -2.498036,-4 -2.275831,-2.158714 -2.484164,-3.09213 -2.5,-11.201035 C 66.00046,29.043267 66.119952,28.587796 70.507365,20.53898 75.348387,11.658007 77.225889,10.187913 88.5,6.4506463 c 8.757492,-2.9030297 12.00874,-2.9245542 17.77106,-0.1176508 2.87592,1.4008963 6.40942,2.9912504 7.85223,3.5341202 C 116.87377,10.902004 124,18.853909 124,20.888175 c 0,0.650205 0.62435,2.178859 1.38745,3.397008 3.64465,5.818007 4.39991,22.082328 1.19013,25.629087 -0.86767,0.958766 -1.58759,2.382778 -1.59982,3.164471 -0.0122,0.781692 -0.79973,2.431257 -1.75,3.665699 -1.6714,2.171221 -1.7294,1.910243 -1.778,-8 z M 105.75,46.919901 c -2.0173,-1.174967 -2.34715,-3.853127 -0.5,-4.059678 3.20044,-0.35788 9.37489,0.443717 10.5,1.363162 2.35786,1.926853 1.24686,2.799748 -2.75,2.160624 -2.68029,-0.428596 -4,-0.267531 -4,0.488183 0,1.376791 -0.94431,1.390653 -3.25,0.04771 z M 82.666714,44.254437 c 1.887537,-1.3802 3.674528,-1.537663 7.083286,-0.624151 4.257374,1.140932 2.241509,2.483957 -3.274415,2.181506 -4.712962,-0.258424 -5.272428,-0.487176 -3.808871,-1.557355 z m 34.269316,-3.831512 c -0.99972,-1.204597 -2.80051,-1.499825 -7.62454,-1.25 -3.47363,0.179891 -6.31474,0.07957 -6.31359,-0.222925 0.006,-1.661215 2.91377,-2.95 6.65505,-2.95 5.21123,0 9.01481,1.621522 9.66868,4.121898 0.59866,2.289281 -0.60902,2.441672 -2.3856,0.301027 z M 82.5,38.068219 C 80.912259,37.4401 81.332471,37.195635 84.538585,36.88224 89.401148,36.406928 92,36.82179 92,38.073324 c 0,1.11243 -6.684206,1.108838 -9.5,-0.0051 z"
       id="path1" />
  </g>
</svg>
